# xmcd
# 
# Track frame offsets:
#     150
#     13216
#     28696
#     53773
#     78881
#     91341
#     103428
#     124568
#     140928
#     166026
#     178403
#     200891
#     213808
#     228296
#     243756
#     258146
#     278843
#     301600
#     310753
# 
# Disc length: 4468
# 
# Revision: 6
# Processed by: cddbd v1.5.2PL0 Copyright (c) Steve Scherf et al.
# Submitted via: fre:ac v1.0.27
# 
DISCID=fe117213
DTITLE=SEATBELTS - SPACE BIO CHARGE DISC 1
DYEAR=2009
DGENRE=Soundtrack
TTITLE0=YOKO KANNO SEATBELTS/Fly up in the air (eco. size)
TTITLE1=YOKO KANNO SEATBELTS/Tank! (TV stretch)
TTITLE2=AKINO/荒野のヒース
TTITLE3=Gabriela Robin/トルキア (eco. size)
TTITLE4=YOKO KANNO SEATBELTS/WHAT PLANET IS THIS.
TTITLE5=YOKO KANNO SEATBELTS/ハイヒールラナウェイ (eco. size)
TTITLE6=RaJu Ramayya/Ask DNA (eco. size)
TTITLE7=Steve Conte/could you bite the hand?
TTITLE8=Origa with Heartsdales/player (eco. size)
TTITLE9=YOKO KANNO SEATBELTS/Power of the Light (eco. size)
TTITLE10=奥井亜紀/限りなき旅路
TTITLE11=YOKO KANNO SEATBELTS/DANCE OF CURSE (eco. size)
TTITLE12=AKINO/Genesis of Aquarion
TTITLE13=Scott Matthew/Lithium Flower
TTITLE14=YOKO KANNO SEATBELTS/Shiro, Long Tail's
TTITLE15=Origa/inner universe (eco. size)
TTITLE16=May'n , 中島愛/ライオン
TTITLE17=Gabriela Robin/地球共鳴
TTITLE18=YOKO KANNO SEATBELTS/ラクエン ～ secret garden
EXTD=YEAR: 2009
EXTT0=
EXTT1=
EXTT2=
EXTT3=
EXTT4=
EXTT5=
EXTT6=
EXTT7=
EXTT8=
EXTT9=
EXTT10=
EXTT11=
EXTT12=
EXTT13=
EXTT14=
EXTT15=
EXTT16=
EXTT17=
EXTT18=
PLAYORDER=
